<?xml version="1.0" encoding="UTF-8" standalone="no"?>
<!DOCTYPE svg PUBLIC "-//W3C//DTD SVG 20010904//EN"
              "http://www.w3.org/TR/2001/REC-SVG-20010904/DTD/svg10.dtd">

<svg xmlns="http://www.w3.org/2000/svg"
     width="5.55556in" height="5.55556in"
     viewBox="0 0 500 500">
  <path id="up"
        fill="black" stroke="black" stroke-width="1"
        d="M 250.45,68.36
           C 250.45,68.36 135.36,132.36 135.36,132.36
             135.36,132.36 199.38,248.62 199.38,248.62
             199.38,248.62 300.26,248.55 300.26,248.55
             300.26,248.55 364.00,133.25 364.00,133.25
             364.00,133.25 250.45,68.36 250.45,68.36 Z" />
  <path id="right"
        fill="black" stroke="black" stroke-width="1"
        d="M 302.67,249.67
           C 302.67,249.67 365.33,364.00 365.33,364.00
             365.33,364.00 482.33,295.67 482.33,295.67
             482.33,295.67 482.33,200.83 482.33,200.83
             482.33,200.83 366.38,134.29 366.38,134.29
             366.38,134.29 302.67,249.67 302.67,249.67 Z" />
  <path id="under"
        fill="black" stroke="black" stroke-width="1"
        d="M 199.67,251.96
           C 199.67,251.96 136.00,366.67 136.00,366.67
             136.00,366.67 250.00,430.33 250.00,430.33
             250.00,430.33 363.00,365.00 363.00,365.00
             363.00,365.00 300.33,251.96 300.33,251.96
             300.33,251.96 199.67,251.96 199.67,251.96 Z" />
  <path id="left"
        fill="black" stroke="black" stroke-width="1"
        d="M 133.00,134.00
           C 133.00,134.00 17.33,198.67 17.33,198.67
             17.33,198.67 17.33,300.33 17.33,300.33
             17.33,300.33 133.67,365.33 133.67,365.33
             133.67,365.33 197.33,251.00 197.33,251.00
             197.33,251.00 133.00,134.00 133.00,134.00 Z" />
  <path id="break"
        fill="none" stroke="white" stroke-width="3"
        d="M 134.00,133.00
           C 134.00,133.00 198.67,250.67 198.67,250.67
             198.67,250.67 134.96,365.83 134.96,365.83M 365.00,133.62
           C 365.00,133.62 301.33,250.33 301.33,250.33
             301.33,250.33 364.17,364.50 364.17,364.50M 198.67,250.33
           C 198.67,250.33 301.33,250.33 301.33,250.33" />
  <path id="outer"
        fill="none" stroke="goldenrod" stroke-width="8"
        d="M 250.55,63.70
           C 250.55,63.70 13.33,197.00 13.33,197.00
             13.33,197.00 13.03,302.79 13.03,302.79
             13.03,302.79 250.64,434.91 250.64,434.91
             250.64,434.91 486.06,298.48 486.06,298.48
             486.06,298.48 485.91,198.61 485.91,198.61
             485.91,198.61 250.55,63.70 250.55,63.70 Z" />
</svg>
